<?xml version="1.0" standalone="no"?>
<!DOCTYPE svg PUBLIC "-//W3C//DTD SVG 20010904//EN"
 "http://www.w3.org/TR/2001/REC-SVG-20010904/DTD/svg10.dtd">
<svg version="1.0" xmlns="http://www.w3.org/2000/svg"
 width="512.000000pt" height="512.000000pt" viewBox="0 0 512.000000 512.000000"
 preserveAspectRatio="xMidYMid meet">
<metadata>
Created by potrace 1.11, written by Peter Selinger 2001-2013
</metadata>
<g transform="translate(0.000000,512.000000) scale(0.100000,-0.100000)"
fill="#000000" stroke="none">
<path d="M1659 5009 c-61 -9 -103 -32 -132 -71 -52 -71 -61 -148 -25 -220 16
-33 140 -223 186 -287 9 -13 24 -35 32 -50 8 -14 17 -28 20 -31 3 -3 41 -59
84 -125 44 -66 83 -124 87 -129 4 -5 73 -8 153 -7 113 1 146 -1 146 -11 0 -10
2 -10 8 -1 6 9 119 12 452 12 245 0 477 0 516 1 l70 0 75 111 c40 61 79 118
84 127 6 8 61 92 124 185 62 94 122 190 133 214 42 96 5 205 -90 260 l-47 28
-915 0 c-503 0 -936 -3 -961 -6z"/>
<path d="M1883 3809 c-33 -7 -180 -110 -303 -213 -174 -145 -404 -387 -591
-621 -116 -144 -359 -496 -425 -614 -11 -18 -23 -41 -29 -50 -5 -9 -32 -56
-59 -106 -27 -49 -53 -93 -58 -96 -6 -3 -10 -9 -9 -12 0 -4 -38 -86 -85 -183
-91 -188 -129 -278 -175 -414 -44 -126 -93 -323 -105 -420 -3 -25 -7 -52 -10
-61 -3 -9 -7 -39 -9 -65 -3 -27 -8 -65 -11 -84 -4 -19 -8 -109 -9 -199 -4
-180 4 -223 57 -323 55 -104 150 -180 278 -224 53 -18 129 -19 2220 -19 2084
0 2167 1 2220 19 162 55 276 172 323 332 12 39 15 92 12 217 -1 90 -5 177 -9
193 -3 16 -8 54 -11 84 -4 47 -15 116 -40 245 -92 482 -464 1197 -939 1800
-39 50 -73 92 -76 95 -3 3 -38 43 -79 90 -177 204 -455 457 -642 585 l-72 49
-668 1 c-367 0 -681 -3 -696 -6z m774 -615 c45 -18 66 -56 72 -132 l6 -66 56
-16 c99 -30 171 -72 239 -140 74 -74 130 -176 130 -238 0 -54 -45 -98 -108
-109 -108 -17 -135 -2 -188 97 -21 40 -55 86 -78 106 -117 100 -348 83 -458
-33 -68 -72 -94 -190 -64 -287 8 -27 12 -54 9 -59 -3 -6 -1 -7 5 -3 6 3 16 -3
23 -15 42 -80 141 -125 384 -179 153 -33 151 -32 246 -79 134 -66 220 -158
268 -286 33 -87 45 -206 30 -289 -4 -23 -10 -57 -14 -76 -12 -69 -85 -200
-143 -257 -60 -60 -144 -118 -186 -129 -14 -3 -28 -10 -31 -14 -5 -8 -112 -35
-125 -33 -3 1 -4 -23 -3 -52 1 -64 -25 -109 -76 -126 -40 -14 -145 -6 -167 12
-27 22 -45 68 -47 119 -1 33 -6 50 -14 50 -7 0 -14 0 -15 0 -20 0 -182 67
-219 91 -118 76 -217 232 -243 384 -7 38 22 88 63 109 16 9 53 18 83 22 71 8
113 -20 141 -91 63 -168 109 -218 239 -266 74 -27 215 -22 278 11 70 36 106
67 141 121 78 123 72 297 -13 394 -38 44 -152 108 -208 119 -79 16 -271 70
-339 96 -253 98 -374 279 -359 538 15 238 156 418 383 487 l81 25 2 62 c4 104
47 146 147 146 22 -1 54 -6 72 -14z"/>
</g>
</svg>
